<svg width="26" height="26" viewBox="0 0 26 26" fill="none" xmlns="http://www.w3.org/2000/svg">
<path fill-rule="evenodd" clip-rule="evenodd" d="M12.3349 1.31145C12.7261 1.00718 13.2739 1.00718 13.6651 1.31145L23.4151 8.89479C23.679 9.10003 23.8333 9.41561 23.8333 9.74992V21.6666C23.8333 22.5285 23.4909 23.3552 22.8814 23.9647C22.2719 24.5742 21.4453 24.9166 20.5833 24.9166H5.41667C4.55471 24.9166 3.72806 24.5742 3.11857 23.9647C2.50908 23.3552 2.16667 22.5285 2.16667 21.6666V9.74992C2.16667 9.41561 2.32101 9.10003 2.5849 8.89479L12.3349 1.31145ZM4.33333 10.2798V21.6666C4.33333 21.9539 4.44747 22.2295 4.65063 22.4326C4.8538 22.6358 5.12935 22.7499 5.41667 22.7499H20.5833C20.8706 22.7499 21.1462 22.6358 21.3494 22.4326C21.5525 22.2295 21.6667 21.9539 21.6667 21.6666V10.2798L13 3.53902L4.33333 10.2798Z" fill="#E1D6D2"/>
</svg>
